# xmcd
#
# Track frame offsets:
#	150
#	22952
#	41437
#	65205
#	76577
#	97155
#	118795
#	139535
#	162707
#	184825
#	202812
#	221787
#	242454
#	258409
#	273735
#	297800
#
# Disc length: 4168
#
# Revision: 2
# Processed by: cddbd v1.5.1PL0 Copyright (c) Steve Scherf et al.
# Submitted via: CDex 1.50
# Normalized: r1:TRMNUM
#
DISCID=ec104610
DTITLE=Kenny G - ENCORE
DYEAR=1900
DGENRE=Jazz
TTITLE0=Songbird
TTITLE1=Theme From Dying Young
TTITLE2=Silhouette
TTITLE3=Miracles
TTITLE4=Forever In Love
TTITLE5=All In One Night
TTITLE6=Sentimental
TTITLE7=Wating For You
TTITLE8=By The Time Night Is Over
TTITLE9=Midnight Motion
TTITLE10=The Joy Of Life
TTITLE11=Summer Song
TTITLE12=Green Sleeves
TTITLE13=Spring Breeze
TTITLE14=Morning
TTITLE15=The Wedding Song
EXTD=
EXTT0=
EXTT1=
EXTT2=
EXTT3=
EXTT4=
EXTT5=
EXTT6=
EXTT7=
EXTT8=
EXTT9=
EXTT10=
EXTT11=
EXTT12=
EXTT13=
EXTT14=
EXTT15=
PLAYORDER=
